<svg width="1087" height="391" viewBox="0 0 1087 391" fill="none" xmlns="http://www.w3.org/2000/svg">
<path d="M25.1411 262.404V259.896" stroke="black"/>
<path d="M5.67749 231.053V241.085" stroke="black"/>
<rect y="241.085" width="11.3543" height="37.621" fill="#4E9F3D"/>
<rect x="19.4649" y="262.403" width="11.3543" height="16.3024" fill="#4E9F3D"/>
<rect x="38.928" y="267.419" width="11.3543" height="66.4638" fill="#DC3535"/>
<rect x="58.3929" y="330.121" width="11.3543" height="8.77824" fill="#DC3535"/>
<rect x="97.3227" y="360.218" width="11.3543" height="18.8105" fill="#4E9F3D"/>
<rect x="116.786" y="330.121" width="11.3543" height="13.7944" fill="#4E9F3D"/>
<rect x="136.251" y="321.344" width="11.3543" height="20.0645" fill="#4E9F3D"/>
<rect x="155.716" y="254.879" width="11.3543" height="91.5445" fill="#4E9F3D"/>
<rect x="350.361" y="269.928" width="11.3543" height="91.5445" fill="#4E9F3D"/>
<rect x="175.181" y="204.718" width="11.3543" height="60.1936" fill="#4E9F3D"/>
<rect x="369.826" y="204.718" width="11.3543" height="60.1936" fill="#4E9F3D"/>
<rect x="194.645" y="172.112" width="11.3543" height="20.0645" fill="#4E9F3D"/>
<rect x="389.29" y="182.145" width="11.3543" height="20.0645" fill="#4E9F3D"/>
<rect x="233.574" y="162.081" width="11.3543" height="101.577" fill="#DC3535"/>
<rect x="214.109" y="164.589" width="11.3543" height="6.27017" fill="#4E9F3D"/>
<rect x="253.038" y="261.149" width="11.3543" height="6.27017" fill="#DC3535"/>
<rect x="272.504" y="267.419" width="11.3543" height="28.8428" fill="#DC3535"/>
<rect x="291.968" y="291.246" width="11.3543" height="37.621" fill="#4E9F3D"/>
<rect x="311.432" y="310.056" width="11.3543" height="25.0807" fill="#DC3535"/>
<rect x="330.896" y="310.056" width="11.3543" height="21.3186" fill="#4E9F3D"/>
<rect x="77.8578" y="333.884" width="11.3543" height="50.1614" fill="#DC3535"/>
<path d="M5.67749 278.706V283.722" stroke="black"/>
<rect x="24.3307" y="278.706" width="1.62204" height="17.5565" fill="black"/>
<rect x="43.7955" y="259.896" width="1.62204" height="7.5242" fill="black"/>
<rect x="63.2587" y="313.818" width="1.62204" height="16.3024" fill="black"/>
<rect x="63.2587" y="338.899" width="1.62204" height="16.3024" fill="black"/>
<rect x="43.7955" y="333.884" width="1.62204" height="16.3024" fill="black"/>
<rect x="82.7236" y="384.045" width="1.62204" height="6.27017" fill="black"/>
<rect x="102.188" y="379.028" width="1.62204" height="6.27017" fill="black"/>
<rect x="102.188" y="352.694" width="1.62204" height="7.5242" fill="black"/>
<rect x="121.653" y="343.916" width="1.62204" height="12.5403" fill="black"/>
<rect x="121.653" y="288.738" width="1.62204" height="41.3831" fill="black"/>
<rect x="160.582" y="222.274" width="1.62204" height="32.6049" fill="black"/>
<rect x="355.227" y="237.322" width="1.62204" height="32.6049" fill="black"/>
<rect x="180.047" y="199.702" width="1.62204" height="5.01614" fill="black"/>
<rect x="374.692" y="199.702" width="1.62204" height="5.01614" fill="black"/>
<rect x="180.047" y="264.912" width="1.62204" height="30.0968" fill="black"/>
<rect x="374.692" y="264.912" width="1.62204" height="30.0968" fill="black"/>
<rect x="199.512" y="192.178" width="1.62204" height="22.5726" fill="black"/>
<rect x="394.155" y="202.21" width="1.62204" height="22.5726" fill="black"/>
<rect x="199.512" y="158.318" width="1.62204" height="13.7944" fill="black"/>
<rect x="394.155" y="168.352" width="1.62204" height="13.7944" fill="black"/>
<rect x="218.976" y="137" width="1.62204" height="27.5887" fill="black"/>
<rect x="218.976" y="170.858" width="1.62204" height="15.0484" fill="black"/>
<rect x="238.44" y="154.557" width="1.62204" height="7.5242" fill="black"/>
<rect x="238.44" y="263.657" width="1.62204" height="7.5242" fill="black"/>
<rect x="257.904" y="247.354" width="1.62204" height="13.7944" fill="black"/>
<rect x="277.369" y="262.403" width="1.62204" height="5.01614" fill="black"/>
<rect x="257.904" y="267.419" width="1.62204" height="22.5726" fill="black"/>
<rect x="277.369" y="296.263" width="1.62204" height="15.0484" fill="black"/>
<rect x="296.834" y="286.229" width="1.62204" height="5.01614" fill="black"/>
<rect x="316.299" y="302.532" width="1.62204" height="7.5242" fill="black"/>
<rect x="316.299" y="335.138" width="1.62204" height="12.5403" fill="black"/>
<rect x="335.762" y="331.375" width="1.62204" height="40.1291" fill="black"/>
<rect x="296.834" y="328.867" width="1.62204" height="2.50807" fill="black"/>
<rect x="335.762" y="302.532" width="1.62204" height="7.5242" fill="black"/>
<rect x="141.117" y="318.835" width="1.62204" height="2.50807" fill="black"/>
<rect x="141.117" y="341.407" width="1.62204" height="16.3024" fill="black"/>
<rect x="160.582" y="346.424" width="1.62204" height="23.8266" fill="black"/>
<rect x="355.227" y="361.473" width="1.62204" height="23.8266" fill="black"/>
<path d="M787.503 175.415V178.247" stroke="black"/>
<path d="M806.967 210.812V199.485" stroke="black"/>
<rect x="812.644" y="199.485" width="11.3543" height="42.4752" transform="rotate(180 812.644 199.485)" fill="#4E9F3D"/>
<rect x="793.179" y="175.416" width="11.3543" height="18.4059" transform="rotate(180 793.179 175.416)" fill="#4E9F3D"/>
<rect x="773.716" y="169.753" width="11.3543" height="75.0394" transform="rotate(180 773.716 169.753)" fill="#DC3535"/>
<rect x="754.251" y="98.9609" width="11.3543" height="9.91087" transform="rotate(180 754.251 98.9609)" fill="#DC3535"/>
<rect x="715.321" y="64.9805" width="11.3543" height="21.2376" transform="rotate(180 715.321 64.9805)" fill="#4E9F3D"/>
<rect x="695.858" y="98.9609" width="11.3543" height="15.5742" transform="rotate(180 695.858 98.9609)" fill="#4E9F3D"/>
<rect x="676.393" y="108.871" width="11.3543" height="22.6534" transform="rotate(180 676.393 108.871)" fill="#4E9F3D"/>
<rect x="656.928" y="183.911" width="11.3543" height="103.356" transform="rotate(180 656.928 183.911)" fill="#4E9F3D"/>
<rect x="462.283" y="166.92" width="11.3543" height="103.356" transform="rotate(180 462.283 166.92)" fill="#4E9F3D"/>
<rect x="637.463" y="240.544" width="11.3543" height="67.9602" transform="rotate(180 637.463 240.544)" fill="#4E9F3D"/>
<rect x="442.818" y="240.544" width="11.3543" height="67.9602" transform="rotate(180 442.818 240.544)" fill="#4E9F3D"/>
<rect x="617.999" y="277.357" width="11.3543" height="22.6534" transform="rotate(180 617.999 277.357)" fill="#4E9F3D"/>
<rect x="423.354" y="266.031" width="11.3543" height="22.6534" transform="rotate(180 423.354 266.031)" fill="#4E9F3D"/>
<rect x="579.07" y="288.684" width="11.3543" height="114.683" transform="rotate(180 579.07 288.684)" fill="#DC3535"/>
<rect x="598.535" y="285.852" width="11.3543" height="7.07919" transform="rotate(180 598.535 285.852)" fill="#4E9F3D"/>
<rect x="559.606" y="176.833" width="11.3543" height="7.07919" transform="rotate(180 559.606 176.833)" fill="#DC3535"/>
<rect x="540.141" y="169.753" width="11.3543" height="32.5643" transform="rotate(180 540.141 169.753)" fill="#DC3535"/>
<rect x="520.676" y="142.852" width="11.3543" height="42.4752" transform="rotate(180 520.676 142.852)" fill="#4E9F3D"/>
<rect x="501.212" y="121.615" width="11.3543" height="28.3168" transform="rotate(180 501.212 121.615)" fill="#DC3535"/>
<rect x="481.748" y="121.615" width="11.3543" height="24.0692" transform="rotate(180 481.748 121.615)" fill="#4E9F3D"/>
<rect x="734.786" y="94.7129" width="11.3543" height="56.6335" transform="rotate(180 734.786 94.7129)" fill="#DC3535"/>
<path d="M806.967 157.01V151.346" stroke="black"/>
<rect x="788.313" y="157.01" width="1.62204" height="19.8217" transform="rotate(180 788.313 157.01)" fill="black"/>
<rect x="768.849" y="178.247" width="1.62204" height="8.49503" transform="rotate(180 768.849 178.247)" fill="black"/>
<rect x="749.385" y="117.367" width="1.62204" height="18.4059" transform="rotate(180 749.385 117.367)" fill="black"/>
<rect x="749.385" y="89.0508" width="1.62204" height="18.4059" transform="rotate(180 749.385 89.0508)" fill="black"/>
<rect x="768.849" y="94.7129" width="1.62204" height="18.4059" transform="rotate(180 768.849 94.7129)" fill="black"/>
<rect x="729.92" y="38.0796" width="1.62204" height="7.07919" transform="rotate(180 729.92 38.0796)" fill="black"/>
<rect x="710.456" y="43.7437" width="1.62204" height="7.07919" transform="rotate(180 710.456 43.7437)" fill="black"/>
<rect x="710.456" y="73.4756" width="1.62204" height="8.49503" transform="rotate(180 710.456 73.4756)" fill="black"/>
<rect x="690.991" y="83.3862" width="1.62204" height="14.1584" transform="rotate(180 690.991 83.3862)" fill="black"/>
<rect x="690.991" y="145.684" width="1.62204" height="46.7227" transform="rotate(180 690.991 145.684)" fill="black"/>
<rect x="652.062" y="220.724" width="1.62204" height="36.8118" transform="rotate(180 652.062 220.724)" fill="black"/>
<rect x="457.417" y="203.733" width="1.62204" height="36.8118" transform="rotate(180 457.417 203.733)" fill="black"/>
<rect x="632.597" y="246.208" width="1.62204" height="5.66335" transform="rotate(180 632.597 246.208)" fill="black"/>
<rect x="437.952" y="246.208" width="1.62204" height="5.66335" transform="rotate(180 437.952 246.208)" fill="black"/>
<rect x="632.597" y="172.584" width="1.62204" height="33.9801" transform="rotate(180 632.597 172.584)" fill="black"/>
<rect x="437.952" y="172.584" width="1.62204" height="33.9801" transform="rotate(180 437.952 172.584)" fill="black"/>
<rect x="613.132" y="254.703" width="1.62204" height="25.4851" transform="rotate(180 613.132 254.703)" fill="black"/>
<rect x="418.489" y="243.376" width="1.62204" height="25.4851" transform="rotate(180 418.489 243.376)" fill="black"/>
<rect x="613.132" y="292.931" width="1.62204" height="15.5742" transform="rotate(180 613.132 292.931)" fill="black"/>
<rect x="418.489" y="281.603" width="1.62204" height="15.5742" transform="rotate(180 418.489 281.603)" fill="black"/>
<rect x="593.668" y="317" width="1.62204" height="31.1484" transform="rotate(180 593.668 317)" fill="black"/>
<rect x="593.668" y="278.773" width="1.62204" height="16.9901" transform="rotate(180 593.668 278.773)" fill="black"/>
<rect x="574.205" y="297.178" width="1.62204" height="8.49503" transform="rotate(180 574.205 297.178)" fill="black"/>
<rect x="574.205" y="174" width="1.62204" height="8.49503" transform="rotate(180 574.205 174)" fill="black"/>
<rect x="554.74" y="192.407" width="1.62204" height="15.5742" transform="rotate(180 554.74 192.407)" fill="black"/>
<rect x="535.275" y="175.416" width="1.62204" height="5.66335" transform="rotate(180 535.275 175.416)" fill="black"/>
<rect x="554.74" y="169.753" width="1.62204" height="25.4851" transform="rotate(180 554.74 169.753)" fill="black"/>
<rect x="535.275" y="137.188" width="1.62204" height="16.9901" transform="rotate(180 535.275 137.188)" fill="black"/>
<rect x="515.81" y="148.516" width="1.62204" height="5.66335" transform="rotate(180 515.81 148.516)" fill="black"/>
<rect x="496.345" y="130.109" width="1.62204" height="8.49503" transform="rotate(180 496.345 130.109)" fill="black"/>
<rect x="496.345" y="93.2974" width="1.62204" height="14.1584" transform="rotate(180 496.345 93.2974)" fill="black"/>
<rect x="476.882" y="97.5449" width="1.62204" height="45.3068" transform="rotate(180 476.882 97.5449)" fill="black"/>
<rect x="515.81" y="100.377" width="1.62204" height="2.83168" transform="rotate(180 515.81 100.377)" fill="black"/>
<rect x="476.882" y="130.109" width="1.62204" height="8.49503" transform="rotate(180 476.882 130.109)" fill="black"/>
<rect x="671.527" y="111.703" width="1.62204" height="2.83168" transform="rotate(180 671.527 111.703)" fill="black"/>
<rect x="671.527" y="86.2188" width="1.62204" height="18.4059" transform="rotate(180 671.527 86.2188)" fill="black"/>
<rect x="652.062" y="80.5542" width="1.62204" height="26.9009" transform="rotate(180 652.062 80.5542)" fill="black"/>
<rect x="457.417" y="63.5645" width="1.62204" height="26.9009" transform="rotate(180 457.417 63.5645)" fill="black"/>
<rect width="11.3543" height="100.762" transform="matrix(-1 0 0 1 1066.93 129.748)" fill="#4E9F3D"/>
<rect width="11.3543" height="100.762" transform="matrix(-1 0 0 1 872.283 146.312)" fill="#4E9F3D"/>
<rect width="11.3543" height="66.2542" transform="matrix(-1 0 0 1 1047.46 74.5366)" fill="#4E9F3D"/>
<rect width="11.3543" height="66.2542" transform="matrix(-1 0 0 1 852.818 74.5366)" fill="#4E9F3D"/>
<rect width="11.3543" height="22.0847" transform="matrix(-1 0 0 1 1028 38.6475)" fill="#4E9F3D"/>
<rect width="11.3543" height="22.0847" transform="matrix(-1 0 0 1 833.354 49.6899)" fill="#4E9F3D"/>
<rect width="11.3543" height="111.804" transform="matrix(-1 0 0 1 989.07 27.606)" fill="#DC3535"/>
<rect width="11.3543" height="6.90148" transform="matrix(-1 0 0 1 1008.54 30.3667)" fill="#4E9F3D"/>
<rect width="11.3543" height="6.90148" transform="matrix(-1 0 0 1 969.606 136.649)" fill="#DC3535"/>
<rect width="11.3543" height="6.90148" transform="matrix(-1 0 0 1 1086.35 117.547)" fill="#DC3535"/>
<rect width="11.3543" height="31.7468" transform="matrix(-1 0 0 1 950.141 143.551)" fill="#DC3535"/>
<rect width="11.3543" height="41.4089" transform="matrix(-1 0 0 1 930.676 169.776)" fill="#4E9F3D"/>
<rect width="11.3543" height="27.6059" transform="matrix(-1 0 0 1 911.213 190.48)" fill="#DC3535"/>
<rect width="11.3543" height="23.465" transform="matrix(-1 0 0 1 891.748 190.48)" fill="#4E9F3D"/>
<rect width="1.62204" height="35.8877" transform="matrix(-1 0 0 1 1062.06 93.8599)" fill="black"/>
<rect width="1.62204" height="35.8877" transform="matrix(-1 0 0 1 867.417 110.423)" fill="black"/>
<rect width="1.62204" height="5.52118" transform="matrix(-1 0 0 1 1042.6 69.0146)" fill="black"/>
<rect width="1.62204" height="5.52118" transform="matrix(-1 0 0 1 847.952 69.0146)" fill="black"/>
<rect width="1.62204" height="33.1271" transform="matrix(-1 0 0 1 1042.6 140.791)" fill="black"/>
<rect width="1.62204" height="33.1271" transform="matrix(-1 0 0 1 847.952 140.791)" fill="black"/>
<rect width="1.62204" height="24.8453" transform="matrix(-1 0 0 1 1023.13 60.7334)" fill="black"/>
<rect width="1.62204" height="24.8453" transform="matrix(-1 0 0 1 828.489 71.7754)" fill="black"/>
<rect width="1.62204" height="15.1833" transform="matrix(-1 0 0 1 1023.13 23.4648)" fill="black"/>
<rect width="1.62204" height="15.1833" transform="matrix(-1 0 0 1 828.489 34.5083)" fill="black"/>
<rect width="1.62204" height="30.3665" transform="matrix(-1 0 0 1 1003.67 0)" fill="black"/>
<rect width="1.62204" height="16.5635" transform="matrix(-1 0 0 1 1003.67 37.2676)" fill="black"/>
<rect width="1.62204" height="8.28177" transform="matrix(-1 0 0 1 984.205 19.3247)" fill="black"/>
<rect width="1.62204" height="8.28177" transform="matrix(-1 0 0 1 984.205 139.41)" fill="black"/>
<rect width="1.62204" height="15.1833" transform="matrix(-1 0 0 1 964.74 121.465)" fill="black"/>
<rect width="1.62204" height="15.1833" transform="matrix(-1 0 0 1 1081.49 102.364)" fill="black"/>
<rect width="1.62204" height="5.52118" transform="matrix(-1 0 0 1 945.275 138.029)" fill="black"/>
<rect width="1.62204" height="24.8453" transform="matrix(-1 0 0 1 964.74 143.551)" fill="black"/>
<rect width="1.62204" height="24.8453" transform="matrix(-1 0 0 1 1081.49 124.449)" fill="black"/>
<rect width="1.62204" height="16.5635" transform="matrix(-1 0 0 1 945.275 175.298)" fill="black"/>
<rect width="1.62204" height="5.52118" transform="matrix(-1 0 0 1 925.81 164.255)" fill="black"/>
<rect width="1.62204" height="8.28177" transform="matrix(-1 0 0 1 906.345 182.199)" fill="black"/>
<rect width="1.62204" height="13.803" transform="matrix(-1 0 0 1 906.345 218.087)" fill="black"/>
<rect width="1.62204" height="44.1695" transform="matrix(-1 0 0 1 886.882 213.946)" fill="black"/>
<rect width="1.62204" height="2.76059" transform="matrix(-1 0 0 1 925.81 211.186)" fill="black"/>
<rect width="1.62204" height="8.28177" transform="matrix(-1 0 0 1 886.882 182.199)" fill="black"/>
<rect width="1.62204" height="26.2256" transform="matrix(-1 0 0 1 1062.06 230.51)" fill="black"/>
<rect width="1.62204" height="26.2256" transform="matrix(-1 0 0 1 867.417 247.074)" fill="black"/>
</svg>
